<?xml version="1.0" encoding="UTF-8" standalone="no"?>
<svg
   xmlns:dc="http://purl.org/dc/elements/1.1/"
   xmlns:cc="http://creativecommons.org/ns#"
   xmlns:rdf="http://www.w3.org/1999/02/22-rdf-syntax-ns#"
   xmlns:svg="http://www.w3.org/2000/svg"
   xmlns="http://www.w3.org/2000/svg"
   viewBox="0 0 5333.3335 2666.6667"
   height="2200.6667"
   width="5333.3335"
   xml:space="preserve"
   id="svg2"
   version="1.1"><metadata
     id="metadata8"><rdf:RDF><cc:Work
         rdf:about=""><dc:format>image/svg+xml</dc:format><dc:type
           rdf:resource="http://purl.org/dc/dcmitype/StillImage" /></cc:Work></rdf:RDF></metadata><defs
     id="defs6"><linearGradient
       id="linearGradient74"
       spreadMethod="pad"
       gradientTransform="matrix(-3009.31,-694.755,-694.755,3009.31,17578.4,8415)"
       gradientUnits="userSpaceOnUse"
       y2="0"
       x2="1"
       y1="0"
       x1="0"><stop
         id="stop70"
         offset="0"
         style="stop-opacity:1;stop-color:#60b0e2" /><stop
         id="stop72"
         offset="1"
         style="stop-opacity:1;stop-color:#916eb0" /></linearGradient><linearGradient
       id="linearGradient118"
       spreadMethod="pad"
       gradientTransform="matrix(1355.2,3530.41,3530.41,-1355.2,20718.2,5545)"
       gradientUnits="userSpaceOnUse"
       y2="0"
       x2="1"
       y1="0"
       x1="0"><stop
         id="stop114"
         offset="0"
         style="stop-opacity:1;stop-color:#60b0e2" /><stop
         id="stop116"
         offset="1"
         style="stop-opacity:1;stop-color:#916eb0" /></linearGradient></defs><g
     transform="matrix(1.3333333,0,0,-1.3333333,0,2666.6667)"
     id="g10"><g
       transform="scale(0.1)"
       id="g12"><g
         transform="scale(2.45399)"
         id="g14"><path
           id="path16"
           style="fill:#ffffff;fill-opacity:1;fill-rule:evenodd;stroke:none"
           d="M 0,0 H 16300 V 8150 H 0 V 0" /></g><g
         transform="scale(1.09123)"
         id="g18"><path
           id="path20"
           style="fill:#f9f9f9;fill-opacity:1;fill-rule:evenodd;stroke:none"
           d="M 7725.86,1945.7 H 4898.64 V 16300 H 7725.86 V 1945.7" /></g><g
         transform="scale(1.08848)"
         id="g22"><path
           id="path24"
           style="fill:#f9f9f9;fill-opacity:1;fill-rule:evenodd;stroke:none"
           d="M 12311.9,1909.46 H 9477.57 V 16300 H 12311.9 V 1909.46" /></g><g
         transform="scale(1.47761)"
         id="g26"><path
           id="path28"
           style="fill:#f9f9f9;fill-opacity:1;fill-rule:evenodd;stroke:none"
           d="M 16300,1528.08 H 14212 V 12128.8 h 2088 V 1528.08" /></g><g
         transform="scale(1.17967)"
         id="g30"><path
           id="path32"
           style="fill:#f9f9f9;fill-opacity:1;fill-rule:evenodd;stroke:none"
           d="M 16300,1875.94 H 13684.8 V 15154 H 16300 V 1875.94" /></g><g
         transform="scale(1.78255)"
         id="g34"><path
           id="path36"
           style="fill:#f9f9f9;fill-opacity:1;fill-rule:evenodd;stroke:none"
           d="M 16300,1241.48 H 14569.2 V 10028.8 H 16300 V 1241.48" /></g><g
         transform="scale(2.12604)"
         id="g38"><path
           id="path40"
           style="fill:#f9f9f9;fill-opacity:1;fill-rule:evenodd;stroke:none"
           d="M 16300,1040.9 H 14848.9 V 8408.48 H 16300 V 1040.9" /></g><g
         transform="scale(1.08196)"
         id="g42"><path
           id="path44"
           style="fill:#f0f0f0;fill-opacity:1;fill-rule:evenodd;stroke:none"
           d="m 16081.1,11016.4 h -176.3 c -120.9,0 -218.9,-98 -218.9,-218.8 V 10443 c 0,-120.9 -97.9,-218.9 -218.8,-218.9 h -1074.3 c -120.9,0 -218.8,98 -218.8,218.9 v 354.6 c 0,120.8 -98,218.8 -218.9,218.8 h -1959 c -120.9,0 -218.9,98 -218.9,218.9 v 703.3 c 0,44.4 13.6,87.8 38.8,124.3 l 1856.9,2688.5 c 40.9,59.2 108.3,94.5 180.2,94.5 h 1074.6 c 174.7,0 278.9,-194.6 182.2,-340 L 13819,12564.7 c -96.6,-145.4 7.6,-340 182.3,-340 120.9,0 218.9,98 218.9,218.9 v 268.7 c 0,120.9 97.9,218.9 218.8,218.9 h 1028.1 c 120.9,0 218.8,-98 218.8,-218.9 v -268.7 c 0,-120.9 98,-218.9 218.9,-218.9 h 176.3 c 120.9,0 218.9,-98 218.9,-218.8 v -770.6 c 0,-120.9 -98,-218.9 -218.9,-218.9" /></g><g
         transform="scale(1.37428)"
         id="g46"><path
           id="path48"
           style="fill:#f0f0f0;fill-opacity:1;fill-rule:evenodd;stroke:none"
           d="m 15068,9868.73 v 0 c 0,613.37 -138.6,920.07 -415.8,920.07 -277.3,0 -415.9,-306.7 -415.9,-920.07 0,-613.37 138.6,-920.05 415.9,-920.05 277.2,0 415.8,306.68 415.8,920.05 z M 13797.1,8192.35 c -247.8,150.74 -441.8,369.06 -582.2,654.95 -140.4,285.9 -210.5,626.36 -210.5,1021.43 0,395.07 70.1,735.57 210.5,1021.47 140.4,285.9 334.4,504.2 582.2,654.9 247.7,150.8 532.8,226.2 855.1,226.2 322.2,0 607.3,-75.4 855,-226.2 247.8,-150.7 441.9,-369 582.3,-654.9 140.4,-285.9 210.5,-626.4 210.5,-1021.47 0,-395.07 -70.1,-735.53 -210.5,-1021.43 -140.4,-285.89 -334.5,-504.21 -582.3,-654.95 -247.7,-150.76 -532.8,-226.13 -855,-226.13 -322.3,0 -607.4,75.37 -855.1,226.13 v 0" /></g><g
         transform="scale(1.69728)"
         id="g50"><path
           id="path52"
           style="fill:#f0f0f0;fill-opacity:1;fill-rule:evenodd;stroke:none"
           d="m 16160.5,7022.64 h -112.4 c -77,0 -139.5,-62.46 -139.5,-139.51 v -226.04 c 0,-77.05 -62.5,-139.51 -139.6,-139.51 h -684.8 c -77,0 -139.5,62.46 -139.5,139.51 v 226.04 c 0,77.05 -62.4,139.51 -139.5,139.51 h -1248.8 c -77,0 -139.5,62.46 -139.5,139.51 v 448.33 c 0,28.32 8.6,55.98 24.7,79.29 l 1183.7,1713.83 c 26.1,37.72 69,60.22 114.8,60.22 h 685.1 c 111.3,0 177.8,-124.03 116.2,-216.76 l -822.9,-1237.41 c -61.7,-92.72 4.8,-216.76 116.2,-216.76 77,0 139.5,62.46 139.5,139.51 v 171.33 c 0,77.05 62.4,139.51 139.5,139.51 h 655.3 c 77.1,0 139.6,-62.46 139.6,-139.51 V 7932.4 c 0,-77.05 62.5,-139.51 139.5,-139.51 h 112.4 c 77,0 139.5,-62.46 139.5,-139.51 v -491.23 c 0,-77.05 -62.5,-139.51 -139.5,-139.51" /></g><g
         transform="scale(1.05693)"
         id="g54"><path
           id="path56"
           style="fill:#5499c383;fill-opacity:1;fill-rule:evenodd;stroke:none"
           d="m 16076,11301.5 h -180.6 c -123.7,0 -224,-100.3 -224,-224 v -363 c 0,-123.7 -100.3,-224 -224.1,-224 h -1099.8 c -123.6,0 -223.9,100.3 -223.9,224 v 363 c 0,123.7 -100.4,224 -224.1,224 h -2005.4 c -123.7,0 -224,100.3 -224,224.1 v 719.9 c 0,45.5 13.8,89.9 39.6,127.3 l 1901,2752.2 c 41.8,60.6 110.7,96.7 184.3,96.7 h 1100.2 c 178.8,0 285.5,-199.2 186.5,-348.1 l -1321.4,-1987.1 c -99,-148.9 7.7,-348.1 186.6,-348.1 123.7,0 224,100.3 224,224.1 v 275.1 c 0,123.7 100.3,224 224,224 h 1052.4 c 123.8,0 224.1,-100.3 224.1,-224 v -275.1 c 0,-123.8 100.3,-224.1 224,-224.1 h 180.6 c 123.6,0 224,-100.3 224,-224 v -788.8 c 0,-123.8 -100.4,-224.1 -224,-224.1" /></g><g
         transform="scale(1.34925)"
         id="g58"><path
           id="path60"
           style="fill:#5499c383;fill-opacity:1;fill-rule:evenodd;stroke:none"
           d="m 15045.2,10070.8 v 0 c 0,624.7 -141.2,937.1 -423.6,937.1 -282.5,0 -423.6,-312.4 -423.6,-937.1 0,-624.79 141.1,-937.16 423.6,-937.16 282.4,0 423.6,312.37 423.6,937.16 z M 13750.6,8363.27 c -252.4,153.54 -450.1,375.91 -593,667.11 -142.9,291.2 -214.4,637.98 -214.4,1040.42 0,402.4 71.5,749.2 214.4,1040.4 142.9,291.2 340.6,513.5 593,667.1 252.3,153.5 542.7,230.3 871,230.3 328.2,0 618.5,-76.8 870.9,-230.3 252.4,-153.6 450,-375.9 593,-667.1 143,-291.2 214.5,-638 214.5,-1040.4 0,-402.44 -71.5,-749.22 -214.5,-1040.42 -143,-291.2 -340.6,-513.57 -593,-667.11 -252.4,-153.55 -542.7,-230.32 -870.9,-230.32 -328.3,0 -618.7,76.77 -871,230.32 v 0" /></g><g
         transform="scale(1.67224)"
         id="g62"><path
           id="path64"
           style="fill:#5499c383;fill-opacity:1;fill-rule:evenodd;stroke:none"
           d="m 16158.4,7143.04 h -114.1 c -78.2,0 -141.6,-63.4 -141.6,-141.6 v -229.42 c 0,-78.21 -63.4,-141.6 -141.6,-141.6 H 15066 c -78.2,0 -141.6,63.39 -141.6,141.6 v 229.42 c 0,78.2 -63.4,141.6 -141.6,141.6 h -1267.5 c -78.2,0 -141.6,63.4 -141.6,141.6 v 455.04 c 0,28.75 8.8,56.81 25.1,80.48 l 1201.4,1739.48 c 26.5,38.29 70.1,61.14 116.6,61.14 h 695.3 c 113,0 180.5,-125.91 117.9,-220.01 l -835.2,-1255.94 c -62.6,-94.12 4.9,-220.01 117.9,-220.01 78.2,0 141.6,63.39 141.6,141.6 v 173.9 c 0,78.2 63.4,141.6 141.6,141.6 h 665.2 c 78.2,0 141.6,-63.4 141.6,-141.6 v -173.9 c 0,-78.21 63.4,-141.6 141.6,-141.6 h 114.1 c 78.2,0 141.6,-63.4 141.6,-141.6 v -498.58 c 0,-78.2 -63.4,-141.6 -141.6,-141.6" /></g><path
         id="path66"
         style="fill:#193D6F;fill-opacity:1;fill-rule:evenodd;stroke:none"
         d="m 8757.76,8012.5 c 732.54,0 1338.44,235 1836.74,709.1 596.1,567.2 941.1,1373.4 1274.8,2153.1 377.1,881.3 733.3,1713.7 1383.8,1921.9 286.6,91.7 547.4,60.9 797,-94.4 1097.7,-683.1 1513.7,-3402.6 1517.8,-3430 l 370.9,55.2 c -17.7,118.8 -447.2,2919.4 -1690.6,3693.1 -343.8,214.1 -717.1,258.9 -1109.4,133.3 -813.7,-260.5 -1202.6,-1169.4 -1614.3,-2131.6 C 10884.6,9527 10223.1,7980.8 7920.4,8486.2 l -1113.99,360.4 c -98.5,31.8 -204.2,-22.2 -236.05,-120.7 -31.87,-98.5 22.2,-204.3 120.75,-236.1 l 1139.65,-367.9 c 329.47,-72.9 638.1,-109.4 927,-109.4" /><g
         transform="scale(1.09079)"
         id="g68"><path
           id="path76"
           style="fill:#5499C3;fill-opacity:1;fill-rule:evenodd;stroke:none"
           d="m 13838.6,5647.64 -365.9,1773.85 c -126.3,612.58 230.5,1221.59 826.5,1410.99 666.9,211.87 1375.2,-178.67 1551.9,-855.8 L 16300,6256.19 13838.6,5647.64" /></g><g
         transform="scale(1.09557)"
         id="g78"><path
           id="path80"
           style="fill:#bbd1f5;fill-opacity:1;fill-rule:evenodd;stroke:none"
           d="m 13778.9,5576.27 c 39.2,-162.56 626.6,-160.46 1311.9,4.66 685.4,165.03 1209.2,430.64 1170,593.11 -39.1,162.57 -626.5,160.47 -1311.8,-4.65 -685.3,-165.03 -1209.1,-430.65 -1170.1,-593.12" /></g><g
         transform="scale(1.05808)"
         id="g82"><path
           id="path84"
           style="fill:#193D6F;fill-opacity:1;fill-rule:evenodd;stroke:none"
           d="m 15799.5,6269.94 c -10.2,-56.7 91.3,-122.48 226.7,-146.77 135.4,-24.39 253.5,1.98 263.6,58.78 10.2,56.8 -91.3,122.49 -226.7,146.87 -135.4,24.29 -253.4,-2.08 -263.6,-58.88" /></g><g
         transform="scale(1.00003)"
         id="g86"><path
           id="path88"
           style="fill:#193D6F;fill-opacity:1;fill-rule:evenodd;stroke:none"
           d="m 15770.4,6343.81 c -10.8,-60.1 96.6,-129.7 239.9,-155.4 143.3,-25.7 268.2,2.2 279,62.2 10.7,60.1 -96.7,129.69 -240,155.39 -143.2,25.7 -268.1,-2.09 -278.9,-62.19" /></g><g
         transform="scale(1.06765)"
         id="g90"><path
           id="path92"
           style="fill:#bbd1f5;fill-opacity:1;fill-rule:evenodd;stroke:none"
           d="m 15264.7,8811.5 c 0,0 542.4,-197.26 714.9,-764.11 172.5,-566.94 320.4,-1294.06 320.4,-1294.06 l -492.9,-12.36 -542.4,2070.53" /></g><path
         id="path94"
         style="fill:#193D6F;fill-opacity:1;fill-rule:evenodd;stroke:none"
         d="m 15787.6,10093.4 -279.6,-488.5 368.4,85.6 z" /><g
         transform="scale(2.00507)"
         id="g96"><path
           id="path98"
           style="fill:#193D6F;fill-opacity:1;fill-rule:evenodd;stroke:none"
           d="m 11258.3,3189.17 c 0,0 0,0 0,0 l -43.9,-79.35 43.9,79.35 z m 5041.7,2099.63 -74.4,-165.33 c -12.9,5.81 -320,148.25 -601.8,650 -81.5,145.04 -206.5,314.7 -339.1,299.06 -95.1,-11.23 -347.4,-146.35 -634.3,-1155.94 -312.8,-1101.01 -981.8,-1820.44 -1988.5,-2138.18 -651.6,-205.68 -1457.3,233.31 -1491.3,252.11 l 87.7,158.65 c 10.1,-5.59 773.1,-419.69 1349,-237.9 944.9,298.3 1573.7,976.18 1868.8,2014.85 236.1,830.98 493.6,1251.77 787.3,1286.45 186.1,21.98 360.5,-109.37 518.4,-390.29 253,-450.31 515.6,-572.29 518.2,-573.48 v 0" /></g><g
         transform="scale(1.2427)"
         id="g100"><path
           id="path102"
           style="fill:#193D6F;fill-opacity:1;fill-rule:evenodd;stroke:none"
           d="m 15450.7,6209.95 770.5,-558.38 c 64.4,-46.59 78.8,-136.64 32.1,-201.02 -46.6,-64.37 -136.7,-78.78 -201.1,-32.1 l -770.4,558.3 c -64.4,46.67 -78.8,136.64 -32.1,201.01 46.7,64.46 136.6,78.78 201,32.19" /></g><g
         transform="scale(1.28801)"
         id="g104"><path
           id="path106"
           style="fill:#193D6F;fill-opacity:1;fill-rule:evenodd;stroke:none"
           d="m 15480.6,6816.63 743.4,-538.66 c 62.1,-45.03 76,-131.91 31,-194.02 -45.1,-62.11 -131.9,-76.01 -194,-30.98 l -743.4,538.66 c -62.1,45.03 -76,131.91 -30.9,194.02 45,62.11 131.8,76.01 193.9,30.98" /></g><g
         transform="scale(1.43689)"
         id="g108"><path
           id="path110"
           style="fill:#193D6F;fill-opacity:1;fill-rule:evenodd;stroke:none"
           d="m 16208.1,4188.84 -413.6,-61.66 114.5,230.57 391,-154.02 -91.9,-14.89" /></g><g
         transform="scale(1.4216)"
         id="g112"><path
           id="path120"
           style="fill:url(#linearGradient118);fill-opacity:1;fill-rule:evenodd;stroke:none"
           d="m 13557.7,4730.11 1165.1,-757.46 c 402.4,-261.61 937.3,-176.99 1239.3,195.98 337.9,417.28 256.9,1032.57 -177.5,1348.13 l -1103.8,801.92 -1123.1,-1588.57" /></g><g
         transform="scale(1.35991)"
         id="g122">
         <path
           id="path124"
           style="fill:#bbd1f5;fill-opacity:1;fill-rule:evenodd;stroke:none"
           d="m 14581,4886.63 280.4,379.44 1438.6,-1036.24 c 0,0 -344.8,-171.78 -741.8,21.17 -396.9,192.96 -977.2,635.63 -977.2,635.63" /></g>
        </g></g></svg>